<?xml version="1.0" encoding="utf-8"?>
<!-- Generator: Adobe Illustrator 15.0.0, SVG Export Plug-In . SVG Version: 6.00 Build 0)  -->
<!DOCTYPE svg PUBLIC "-//W3C//DTD SVG 1.1//EN" "http://www.w3.org/Graphics/SVG/1.1/DTD/svg11.dtd">
<svg version="1.1" id="Layer_1" xmlns="http://www.w3.org/2000/svg" xmlns:xlink="http://www.w3.org/1999/xlink" x="0px" y="0px"
	 width="50px" height="50px" viewBox="0 0 50 50" enable-background="new 0 0 50 50" xml:space="preserve">
<g>
	<g>
		<g>
			
				<rect x="37.91" y="8.467" transform="matrix(0.0427 0.9991 -0.9991 0.0427 45.996 -30.811)" fill="#FAF1DB" width="2.332" height="0.26"/>
		</g>
		<g>
			
				<rect x="38.441" y="8.971" transform="matrix(0.0092 1 -1 0.0092 48.3421 -30.5885)" fill="#FAF1DB" width="2.331" height="0.259"/>
		</g>
		<g>
			
				<rect x="39.993" y="8.457" transform="matrix(0.9996 0.0265 -0.0265 0.9996 0.2691 -1.0601)" fill="#FAF1DB" width="0.258" height="2.331"/>
		</g>
		<g>
			
				<rect x="40.49" y="8.996" transform="matrix(0.9982 0.0605 -0.0605 0.9982 0.6892 -2.4386)" fill="#FAF1DB" width="0.258" height="2.332"/>
		</g>
		<g>
			
				<rect x="40.969" y="9.552" transform="matrix(0.9955 0.0943 -0.0943 0.9955 1.1935 -3.8268)" fill="#FAF1DB" width="0.259" height="2.331"/>
		</g>
		<g>
			
				<rect x="41.427" y="10.125" transform="matrix(0.9918 0.1277 -0.1277 0.9918 1.7825 -5.2157)" fill="#FAF1DB" width="0.26" height="2.331"/>
		</g>
		<g>
			
				<rect x="41.868" y="10.711" transform="matrix(0.9875 0.1577 -0.1577 0.9875 2.3985 -6.4743)" fill="#FAF1DB" width="0.26" height="2.332"/>
		</g>
		<g>
			
				<rect x="42.287" y="11.314" transform="matrix(0.9816 0.1911 -0.1911 0.9816 3.1661 -7.8748)" fill="#FAF1DB" width="0.261" height="2.332"/>
		</g>
		<g>
			
				<rect x="42.687" y="11.931" transform="matrix(0.9734 0.2292 -0.2292 0.9734 4.1429 -9.4669)" fill="#FAF1DB" width="0.26" height="2.333"/>
		</g>
		<g>
			
				<rect x="43.067" y="12.563" transform="matrix(0.9653 0.2612 -0.2612 0.9653 5.0856 -10.8059)" fill="#FAF1DB" width="0.258" height="2.332"/>
		</g>
		<g>
			
				<rect x="43.425" y="13.209" transform="matrix(0.9586 0.2846 -0.2846 0.9586 5.8924 -11.8014)" fill="#FAF1DB" width="0.261" height="2.333"/>
		</g>
		<g>
			
				<rect x="43.761" y="13.87" transform="matrix(0.9453 0.3263 -0.3263 0.9453 7.3096 -13.5003)" fill="#FAF1DB" width="0.26" height="2.331"/>
		</g>
		<g>
			
				<rect x="44.076" y="14.541" transform="matrix(0.9341 0.3569 -0.3569 0.9341 8.5185 -14.744)" fill="#FAF1DB" width="0.257" height="2.331"/>
		</g>
		<g>
			
				<rect x="44.368" y="15.225" transform="matrix(0.9237 0.383 -0.383 0.9237 9.6716 -15.7934)" fill="#FAF1DB" width="0.26" height="2.333"/>
		</g>
		<g>
			
				<rect x="44.636" y="15.92" transform="matrix(0.9089 0.4169 -0.4169 0.9089 11.1999 -17.1078)" fill="#FAF1DB" width="0.26" height="2.334"/>
		</g>
		<g>
			
				<rect x="44.881" y="16.627" transform="matrix(0.8929 0.4502 -0.4502 0.8929 12.8317 -18.3595)" fill="#FAF1DB" width="0.258" height="2.333"/>
		</g>
		<g>
			
				<rect x="45.102" y="17.346" transform="matrix(0.8796 0.4757 -0.4757 0.8796 14.2509 -19.2869)" fill="#FAF1DB" width="0.259" height="2.334"/>
		</g>
		<g>
			
				<rect x="45.299" y="18.076" transform="matrix(0.8588 0.5123 -0.5123 0.8588 16.2709 -20.5553)" fill="#FAF1DB" width="0.259" height="2.331"/>
		</g>
		<g>
			
				<rect x="45.469" y="18.814" transform="matrix(0.839 0.5442 -0.5442 0.839 18.2163 -21.5967)" fill="#FAF1DB" width="0.258" height="2.333"/>
		</g>
		<g>
			
				<rect x="45.615" y="19.565" transform="matrix(0.8178 0.5755 -0.5755 0.8178 20.2639 -22.5484)" fill="#FAF1DB" width="0.258" height="2.33"/>
		</g>
		<g>
			
				<rect x="45.734" y="20.322" transform="matrix(0.7946 0.6072 -0.6072 0.7946 22.4684 -23.4334)" fill="#FAF1DB" width="0.261" height="2.33"/>
		</g>
		<g>
			
				<rect x="45.828" y="21.086" transform="matrix(0.7772 0.6293 -0.6293 0.7772 24.2445 -23.9624)" fill="#FAF1DB" width="0.258" height="2.332"/>
		</g>
		<g>
			
				<rect x="45.893" y="21.861" transform="matrix(0.7507 0.6606 -0.6606 0.7507 26.6848 -24.6639)" fill="#FAF1DB" width="0.26" height="2.332"/>
		</g>
		<g>
			
				<rect x="45.933" y="22.641" transform="matrix(0.7348 0.6783 -0.6783 0.7348 28.3639 -24.9296)" fill="#FAF1DB" width="0.259" height="2.333"/>
		</g>
		<g>
			
				<rect x="45.944" y="23.428" transform="matrix(0.7052 0.709 -0.709 0.7052 31.0199 -25.4148)" fill="#FAF1DB" width="0.256" height="2.334"/>
		</g>
		<g>
			
				<rect x="45.926" y="24.215" transform="matrix(0.6783 0.7348 -0.7348 0.6783 33.4672 -25.6758)" fill="#FAF1DB" width="0.259" height="2.332"/>
		</g>
		<g>
			
				<rect x="45.88" y="24.993" transform="matrix(0.6545 0.7561 -0.7561 0.6545 35.6743 -25.7482)" fill="#FAF1DB" width="0.26" height="2.332"/>
		</g>
		<g>
			
				<rect x="45.807" y="25.764" transform="matrix(0.6238 0.7816 -0.7816 0.6238 38.3316 -25.7725)" fill="#FAF1DB" width="0.26" height="2.334"/>
		</g>
		<g>
			
				<rect x="45.708" y="26.527" transform="matrix(0.5964 0.8027 -0.8027 0.5964 40.7299 -25.6169)" fill="#FAF1DB" width="0.26" height="2.333"/>
		</g>
		<g>
			
				<rect x="45.583" y="27.283" transform="matrix(0.5694 0.8221 -0.8221 0.5694 43.0695 -25.3285)" fill="#FAF1DB" width="0.259" height="2.33"/>
		</g>
		<g>
			
				<rect x="45.432" y="28.025" transform="matrix(0.5388 0.8424 -0.8424 0.5388 45.6027 -24.9182)" fill="#FAF1DB" width="0.257" height="2.334"/>
		</g>
		<g>
			
				<rect x="45.254" y="28.762" transform="matrix(0.5095 0.8605 -0.8605 0.5095 48.0132 -24.3718)" fill="#FAF1DB" width="0.259" height="2.332"/>
		</g>
		<g>
			
				<rect x="45.052" y="29.488" transform="matrix(0.4815 0.8765 -0.8765 0.4815 50.294 -23.7052)" fill="#FAF1DB" width="0.26" height="2.333"/>
		</g>
		<g>
			
				<rect x="44.826" y="30.203" transform="matrix(0.4457 0.8952 -0.8952 0.4457 52.9991 -22.8554)" fill="#FAF1DB" width="0.259" height="2.332"/>
		</g>
		<g>
			
				<rect x="44.576" y="30.906" transform="matrix(0.4169 0.9089 -0.9089 0.4169 55.2199 -21.9342)" fill="#FAF1DB" width="0.26" height="2.333"/>
		</g>
		<g>
			
				<rect x="44.302" y="31.601" transform="matrix(0.383 0.9237 -0.9237 0.383 57.6811 -20.8272)" fill="#FAF1DB" width="0.26" height="2.331"/>
		</g>
		<g>
			
				<rect x="44.007" y="32.28" transform="matrix(0.3511 0.9363 -0.9363 0.3511 59.9557 -19.6235)" fill="#FAF1DB" width="0.259" height="2.332"/>
		</g>
		<g>
			
				<rect x="43.687" y="32.948" transform="matrix(0.3162 0.9487 -0.9487 0.3162 62.3244 -18.242)" fill="#FAF1DB" width="0.259" height="2.332"/>
		</g>
		<g>
			
				<rect x="43.346" y="33.604" transform="matrix(0.2856 0.9583 -0.9583 0.2856 64.3794 -16.8264)" fill="#FAF1DB" width="0.26" height="2.332"/>
		</g>
		<g>
			
				<rect x="42.983" y="34.247" transform="matrix(0.2487 0.9686 -0.9686 0.2487 66.6878 -15.1535)" fill="#FAF1DB" width="0.259" height="2.33"/>
		</g>
		<g>
			
				<rect x="42.6" y="34.875" transform="matrix(0.2141 0.9768 -0.9768 0.2141 68.7832 -13.416)" fill="#FAF1DB" width="0.26" height="2.331"/>
		</g>
		<g>
			
				<rect x="42.196" y="35.488" transform="matrix(0.1852 0.9827 -0.9827 0.1852 70.5054 -11.7274)" fill="#FAF1DB" width="0.258" height="2.331"/>
		</g>
		<g>
			
				<rect x="41.771" y="36.088" transform="matrix(0.1467 0.9892 -0.9892 0.1467 72.6046 -9.6592)" fill="#FAF1DB" width="0.26" height="2.33"/>
		</g>
		<g>
			
				<rect x="41.328" y="36.671" transform="matrix(0.1171 0.9931 -0.9931 0.1171 74.1804 -7.7647)" fill="#FAF1DB" width="0.259" height="2.332"/>
		</g>
		<g>
			
				<rect x="40.864" y="37.238" transform="matrix(0.0787 0.9969 -0.9969 0.0787 76.053 -5.4852)" fill="#FAF1DB" width="0.261" height="2.332"/>
		</g>
		<g>
			
				<rect x="40.383" y="37.79" transform="matrix(0.0565 0.9984 -0.9984 0.0565 77.117 -3.6925)" fill="#FAF1DB" width="0.259" height="2.333"/>
		</g>
		<g>
			<rect x="38.846" y="39.361" fill="#FAF1DB" width="2.334" height="0.259"/>
		</g>
		<g>
			
				<rect x="38.328" y="39.879" transform="matrix(0.9999 0.0167 -0.0167 0.9999 0.6756 -0.6558)" fill="#FAF1DB" width="2.332" height="0.259"/>
		</g>
		<g>
			
				<rect x="37.793" y="40.379" transform="matrix(0.9987 0.0503 -0.0503 0.9987 2.0848 -1.9066)" fill="#FAF1DB" width="2.332" height="0.26"/>
		</g>
		<g>
			
				<rect x="37.243" y="40.861" transform="matrix(0.9965 0.0838 -0.0838 0.9965 3.5689 -3.0735)" fill="#FAF1DB" width="2.331" height="0.259"/>
		</g>
		<g>
			
				<rect x="36.675" y="41.324" transform="matrix(0.9931 0.1176 -0.1176 0.9931 5.1395 -4.1638)" fill="#FAF1DB" width="2.333" height="0.26"/>
		</g>
		<g>
			
				<rect x="36.092" y="41.768" transform="matrix(0.9885 0.1509 -0.1509 0.9885 6.75 -5.1429)" fill="#FAF1DB" width="2.329" height="0.258"/>
		</g>
		<g>
			
				<rect x="35.492" y="42.193" transform="matrix(0.9828 0.1846 -0.1846 0.9828 8.4424 -6.0395)" fill="#FAF1DB" width="2.333" height="0.259"/>
		</g>
		<g>
			
				<rect x="34.878" y="42.596" transform="matrix(0.976 0.2179 -0.2179 0.976 10.1785 -6.8289)" fill="#FAF1DB" width="2.334" height="0.26"/>
		</g>
		<g>
			
				<rect x="34.25" y="42.98" transform="matrix(0.9679 0.2513 -0.2513 0.9679 11.9697 -7.5165)" fill="#FAF1DB" width="2.332" height="0.258"/>
		</g>
		<g>
			
				<rect x="33.609" y="43.343" transform="matrix(0.9589 0.2839 -0.2839 0.9589 13.7721 -8.0836)" fill="#FAF1DB" width="2.332" height="0.259"/>
		</g>
		<g>
			
				<rect x="32.954" y="43.684" transform="matrix(0.9484 0.317 -0.317 0.9484 15.6477 -8.5559)" fill="#FAF1DB" width="2.332" height="0.259"/>
		</g>
		<g>
			
				<rect x="32.286" y="44.003" transform="matrix(0.9368 0.3498 -0.3498 0.9368 17.5531 -8.9137)" fill="#FAF1DB" width="2.331" height="0.259"/>
		</g>
		<g>
			
				<rect x="31.605" y="44.3" transform="matrix(0.9243 0.3818 -0.3818 0.9243 19.4435 -9.1456)" fill="#FAF1DB" width="2.333" height="0.259"/>
		</g>
		<g>
			
				<rect x="30.913" y="44.574" transform="matrix(0.9106 0.4132 -0.4132 0.9106 21.34 -9.2608)" fill="#FAF1DB" width="2.332" height="0.259"/>
		</g>
		<g>
			
				<rect x="30.207" y="44.824" transform="matrix(0.8955 0.445 -0.445 0.8955 23.284 -9.265)" fill="#FAF1DB" width="2.333" height="0.259"/>
		</g>
		<g>
			
				<rect x="29.493" y="45.051" transform="matrix(0.8793 0.4763 -0.4763 0.8793 25.2204 -9.1486)" fill="#FAF1DB" width="2.331" height="0.259"/>
		</g>
		<g>
			
				<rect x="28.768" y="45.253" transform="matrix(0.8618 0.5073 -0.5073 0.8618 27.1623 -8.9119)" fill="#FAF1DB" width="2.331" height="0.259"/>
		</g>
		<g>
			
				<rect x="28.033" y="45.429" transform="matrix(0.8436 0.537 -0.537 0.8436 29.0313 -8.5532)" fill="#FAF1DB" width="2.331" height="0.261"/>
		</g>
		<g>
			
				<rect x="27.286" y="45.582" transform="matrix(0.8238 0.5668 -0.5668 0.8238 30.9215 -8.0749)" fill="#FAF1DB" width="2.333" height="0.258"/>
		</g>
		<g>
			
				<rect x="26.534" y="45.707" transform="matrix(0.8032 0.5958 -0.5958 0.8032 32.7603 -7.4797)" fill="#FAF1DB" width="2.331" height="0.26"/>
		</g>
		<g>
			
				<rect x="25.77" y="45.806" transform="matrix(0.7816 0.6237 -0.6237 0.7816 34.533 -6.7703)" fill="#FAF1DB" width="2.331" height="0.259"/>
		</g>
		<g>
			
				<rect x="24.999" y="45.88" transform="matrix(0.7583 0.6519 -0.6519 0.7583 36.3169 -5.9365)" fill="#FAF1DB" width="2.331" height="0.258"/>
		</g>
		<g>
			
				<rect x="24.221" y="45.925" transform="matrix(0.7346 0.6785 -0.6785 0.7346 37.9833 -5.0023)" fill="#FAF1DB" width="2.33" height="0.259"/>
		</g>
		<g>
			
				<rect x="23.436" y="45.942" transform="matrix(0.7102 0.704 -0.704 0.7102 39.5609 -3.9685)" fill="#FAF1DB" width="2.331" height="0.259"/>
		</g>
		<g>
			
				<rect x="22.648" y="45.932" transform="matrix(0.6846 0.7289 -0.7289 0.6846 41.0884 -2.8302)" fill="#FAF1DB" width="2.332" height="0.258"/>
		</g>
		<g>
			
				<rect x="21.867" y="45.893" transform="matrix(0.658 0.753 -0.753 0.658 42.5336 -1.6049)" fill="#FAF1DB" width="2.333" height="0.26"/>
		</g>
		<g>
			
				<rect x="21.095" y="45.828" transform="matrix(0.631 0.7758 -0.7758 0.631 43.8701 -0.3103)" fill="#FAF1DB" width="2.332" height="0.26"/>
		</g>
		<g>
			
				<rect x="20.329" y="45.735" transform="matrix(0.6025 0.7981 -0.7981 0.6025 45.1472 1.0737)" fill="#FAF1DB" width="2.332" height="0.259"/>
		</g>
		<g>
			
				<rect x="19.573" y="45.616" transform="matrix(0.5739 0.8189 -0.8189 0.5739 46.2999 2.5092)" fill="#FAF1DB" width="2.331" height="0.259"/>
		</g>
		<g>
			
				<rect x="18.827" y="45.471" transform="matrix(0.5443 0.8389 -0.8389 0.5443 47.3636 4.0079)" fill="#FAF1DB" width="2.331" height="0.259"/>
		</g>
		<g>
			
				<rect x="18.088" y="45.3" transform="matrix(0.5146 0.8575 -0.8575 0.5146 48.301 5.5444)" fill="#FAF1DB" width="2.332" height="0.261"/>
		</g>
		<g>
			
				<rect x="17.359" y="45.106" transform="matrix(0.4843 0.8749 -0.8749 0.4843 49.1291 7.1186)" fill="#FAF1DB" width="2.333" height="0.259"/>
		</g>
		<g>
			
				<rect x="16.642" y="44.885" transform="matrix(0.4532 0.8914 -0.8914 0.4532 49.863 8.7382)" fill="#FAF1DB" width="2.334" height="0.259"/>
		</g>
		<g>
			
				<rect x="15.935" y="44.64" transform="matrix(0.4214 0.9069 -0.9069 0.4214 50.4957 10.3956)" fill="#FAF1DB" width="2.331" height="0.26"/>
		</g>
		<g>
			
				<rect x="15.239" y="44.373" transform="matrix(0.3899 0.9209 -0.9209 0.3899 50.9907 12.0454)" fill="#FAF1DB" width="2.332" height="0.26"/>
		</g>
		<g>
			
				<rect x="14.556" y="44.082" transform="matrix(0.358 0.9337 -0.9337 0.358 51.3748 13.703)" fill="#FAF1DB" width="2.332" height="0.258"/>
		</g>
		<g>
			
				<rect x="13.884" y="43.769" transform="matrix(0.3256 0.9455 -0.9455 0.3256 51.6557 15.3733)" fill="#FAF1DB" width="2.333" height="0.26"/>
		</g>
		<g>
			
				<rect x="13.226" y="43.434" transform="matrix(0.2925 0.9563 -0.9563 0.2925 51.8395 17.0585)" fill="#FAF1DB" width="2.33" height="0.258"/>
		</g>
		<g>
			
				<rect x="12.58" y="43.077" transform="matrix(0.26 0.9656 -0.9656 0.26 51.891 18.6983)" fill="#FAF1DB" width="2.332" height="0.259"/>
		</g>
		<g>
			
				<rect x="11.949" y="42.697" transform="matrix(0.2269 0.9739 -0.9739 0.2269 51.8486 20.335)" fill="#FAF1DB" width="2.332" height="0.261"/>
		</g>
		<g>
			
				<rect x="11.331" y="42.3" transform="matrix(0.1934 0.9811 -0.9811 0.1934 51.7086 21.9622)" fill="#FAF1DB" width="2.333" height="0.258"/>
		</g>
		<g>
			
				<rect x="10.728" y="41.88" transform="matrix(0.1599 0.9871 -0.9871 0.1599 51.461 23.5498)" fill="#FAF1DB" width="2.333" height="0.259"/>
		</g>
		<g>
			
				<rect x="10.141" y="41.44" transform="matrix(0.1257 0.9921 -0.9921 0.1257 51.1244 25.1278)" fill="#FAF1DB" width="2.331" height="0.257"/>
		</g>
		<g>
			
				<rect x="9.569" y="40.981" transform="matrix(0.0929 0.9957 -0.9957 0.0929 50.6718 26.6022)" fill="#FAF1DB" width="2.333" height="0.26"/>
		</g>
		<g>
			
				<rect x="9.013" y="40.506" transform="matrix(0.0594 0.9982 -0.9982 0.0594 50.1367 28.058)" fill="#FAF1DB" width="2.333" height="0.257"/>
		</g>
		<g>
			
				<rect x="8.474" y="40.01" transform="matrix(0.0251 0.9997 -0.9997 0.0251 49.525 29.4934)" fill="#FAF1DB" width="2.333" height="0.258"/>
		</g>
		<g>
			<rect x="8.989" y="38.458" fill="#FAF1DB" width="0.261" height="2.333"/>
		</g>
		<g>
			
				<rect x="8.485" y="37.931" transform="matrix(0.999 0.0456 -0.0456 0.999 1.7909 -0.352)" fill="#FAF1DB" width="0.257" height="2.33"/>
		</g>
		<g>
			
				<rect x="7.998" y="37.383" transform="matrix(0.9968 0.0796 -0.0796 0.9968 3.094 -0.5245)" fill="#FAF1DB" width="0.258" height="2.331"/>
		</g>
		<g>
			
				<rect x="7.529" y="36.817" transform="matrix(0.9944 0.1055 -0.1055 0.9944 4.0488 -0.5959)" fill="#FAF1DB" width="0.259" height="2.332"/>
		</g>
		<g>
			
				<rect x="7.081" y="36.239" transform="matrix(0.9902 0.1398 -0.1398 0.9902 5.3012 -0.6407)" fill="#FAF1DB" width="0.258" height="2.331"/>
		</g>
		<g>
			
				<rect x="6.653" y="35.644" transform="matrix(0.9842 0.1772 -0.1772 0.9842 6.631 -0.6194)" fill="#FAF1DB" width="0.259" height="2.33"/>
		</g>
		<g>
			
				<rect x="6.242" y="35.032" transform="matrix(0.9786 0.2056 -0.2056 0.9786 7.5795 -0.5364)" fill="#FAF1DB" width="0.256" height="2.333"/>
		</g>
		<g>
			
				<rect x="5.854" y="34.409" transform="matrix(0.9697 0.2443 -0.2443 0.9697 8.8724 -0.384)" fill="#FAF1DB" width="0.26" height="2.332"/>
		</g>
		<g>
			
				<rect x="5.486" y="33.772" transform="matrix(0.9611 0.2762 -0.2762 0.9611 9.8686 -0.1917)" fill="#FAF1DB" width="0.258" height="2.329"/>
		</g>
		<g>
			
				<rect x="5.14" y="33.118" transform="matrix(0.9506 0.3105 -0.3105 0.9506 10.9071 0.0589)" fill="#FAF1DB" width="0.258" height="2.333"/>
		</g>
		<g>
			
				<rect x="4.814" y="32.453" transform="matrix(0.9401 0.3408 -0.3408 0.9401 11.7548 0.3278)" fill="#FAF1DB" width="0.261" height="2.333"/>
		</g>
		<g>
			
				<rect x="4.512" y="31.777" transform="matrix(0.9264 0.3766 -0.3766 0.9264 12.7471 0.6771)" fill="#FAF1DB" width="0.259" height="2.331"/>
		</g>
		<g>
			
				<rect x="4.232" y="31.086" transform="matrix(0.9138 0.4061 -0.4061 0.9138 13.4749 1.0083)" fill="#FAF1DB" width="0.26" height="2.333"/>
		</g>
		<g>
			
				<rect x="3.976" y="30.385" transform="matrix(0.8982 0.4396 -0.4396 0.8982 14.2882 1.4077)" fill="#FAF1DB" width="0.258" height="2.332"/>
		</g>
		<g>
			
				<rect x="3.744" y="29.673" transform="matrix(0.8829 0.4696 -0.4696 0.8829 14.936 1.793)" fill="#FAF1DB" width="0.26" height="2.332"/>
		</g>
		<g>
			
				<rect x="3.535" y="28.95" transform="matrix(0.8615 0.5078 -0.5078 0.8615 15.802 2.3116)" fill="#FAF1DB" width="0.26" height="2.332"/>
		</g>
		<g>
			
				<rect x="3.351" y="28.216" transform="matrix(0.8478 0.5303 -0.5303 0.8478 16.1127 2.6258)" fill="#FAF1DB" width="0.261" height="2.333"/>
		</g>
		<g>
			
				<rect x="3.193" y="27.474" transform="matrix(0.8309 0.5564 -0.5564 0.8309 16.4983 2.9941)" fill="#FAF1DB" width="0.26" height="2.333"/>
		</g>
		<g>
			
				<rect x="3.062" y="26.723" transform="matrix(0.8076 0.5897 -0.5897 0.8076 17.0607 3.4834)" fill="#FAF1DB" width="0.26" height="2.331"/>
		</g>
		<g>
			
				<rect x="2.956" y="25.962" transform="matrix(0.7867 0.6173 -0.6173 0.7867 17.4045 3.8813)" fill="#FAF1DB" width="0.259" height="2.331"/>
		</g>
		<g>
			
				<rect x="2.876" y="25.192" transform="matrix(0.7664 0.6424 -0.6424 0.7664 17.635 4.2268)" fill="#FAF1DB" width="0.26" height="2.333"/>
		</g>
		<g>
			
				<rect x="2.825" y="24.416" transform="matrix(0.7403 0.6723 -0.6723 0.7403 17.966 4.6581)" fill="#FAF1DB" width="0.259" height="2.331"/>
		</g>
		<g>
			
				<rect x="2.799" y="23.631" transform="matrix(0.7202 0.6938 -0.6938 0.7202 18.0239 4.907)" fill="#FAF1DB" width="0.259" height="2.334"/>
		</g>
		<g>
			
				<rect x="2.803" y="22.844" transform="matrix(0.6957 0.7184 -0.7184 0.6957 18.1403 5.2006)" fill="#FAF1DB" width="0.258" height="2.332"/>
		</g>
		<g>
			
				<rect x="2.833" y="22.062" transform="matrix(0.6685 0.7437 -0.7437 0.6685 18.2556 5.4954)" fill="#FAF1DB" width="0.26" height="2.331"/>
		</g>
		<g>
			
				<rect x="2.893" y="21.286" transform="matrix(0.6424 0.7664 -0.7664 0.6424 18.288 5.7124)" fill="#FAF1DB" width="0.26" height="2.333"/>
		</g>
		<g>
			
				<rect x="2.98" y="20.521" transform="matrix(0.6084 0.7936 -0.7936 0.6084 18.4279 6.0245)" fill="#FAF1DB" width="0.258" height="2.331"/>
		</g>
		<g>
			
				<rect x="3.091" y="19.762" transform="matrix(0.5812 0.8137 -0.8137 0.5812 18.3785 6.1425)" fill="#FAF1DB" width="0.26" height="2.332"/>
		</g>
		<g>
			
				<rect x="3.231" y="19.011" transform="matrix(0.5521 0.8338 -0.8338 0.5521 18.3291 6.2355)" fill="#FAF1DB" width="0.26" height="2.333"/>
		</g>
		<g>
			
				<rect x="3.393" y="18.273" transform="matrix(0.5205 0.8538 -0.8538 0.5205 18.2864 6.3119)" fill="#FAF1DB" width="0.261" height="2.331"/>
		</g>
		<g>
			
				<rect x="3.584" y="17.542" transform="matrix(0.486 0.874 -0.874 0.486 18.2586 6.3703)" fill="#FAF1DB" width="0.259" height="2.331"/>
		</g>
		<g>
			
				<rect x="3.798" y="16.819" transform="matrix(0.4622 0.8868 -0.8868 0.4622 18.062 6.1901)" fill="#FAF1DB" width="0.26" height="2.334"/>
		</g>
		<g>
			
				<rect x="4.036" y="16.111" transform="matrix(0.426 0.9047 -0.9047 0.426 18.0216 6.1483)" fill="#FAF1DB" width="0.259" height="2.332"/>
		</g>
		<g>
			
				<rect x="4.299" y="15.413" transform="matrix(0.4012 0.916 -0.916 0.4012 17.8365 5.871)" fill="#FAF1DB" width="0.258" height="2.331"/>
		</g>
		<g>
			
				<rect x="4.583" y="14.725" transform="matrix(0.3668 0.9303 -0.9303 0.3668 17.7668 5.6785)" fill="#FAF1DB" width="0.258" height="2.333"/>
		</g>
		<g>
			
				<rect x="4.891" y="14.051" transform="matrix(0.333 0.9429 -0.9429 0.333 17.6972 5.415)" fill="#FAF1DB" width="0.261" height="2.333"/>
		</g>
		<g>
			
				<rect x="5.221" y="13.389" transform="matrix(0.297 0.9549 -0.9549 0.297 17.6595 5.1229)" fill="#FAF1DB" width="0.26" height="2.332"/>
		</g>
		<g>
			
				<rect x="5.573" y="12.741" transform="matrix(0.2638 0.9646 -0.9646 0.2638 17.612 4.7382)" fill="#FAF1DB" width="0.259" height="2.331"/>
		</g>
		<g>
			
				<rect x="5.945" y="12.105" transform="matrix(0.2284 0.9736 -0.9736 0.2284 17.6086 4.325)" fill="#FAF1DB" width="0.261" height="2.333"/>
		</g>
		<g>
			
				<rect x="6.34" y="11.483" transform="matrix(0.207 0.9783 -0.9783 0.207 17.5072 3.7018)" fill="#FAF1DB" width="0.26" height="2.333"/>
		</g>
		<g>
			
				<rect x="6.754" y="10.877" transform="matrix(0.1626 0.9867 -0.9867 0.1626 17.6477 3.2948)" fill="#FAF1DB" width="0.258" height="2.333"/>
		</g>
		<g>
			
				<rect x="7.188" y="10.286" transform="matrix(0.1314 0.9913 -0.9913 0.1314 17.7094 2.6922)" fill="#FAF1DB" width="0.26" height="2.333"/>
		</g>
		<g>
			
				<rect x="7.642" y="9.711" transform="matrix(0.1092 0.994 -0.994 0.1092 17.7353 1.9638)" fill="#FAF1DB" width="0.259" height="2.332"/>
		</g>
		<g>
			
				<rect x="8.114" y="9.152" transform="matrix(0.064 0.9979 -0.9979 0.064 18.0112 1.4302)" fill="#FAF1DB" width="0.259" height="2.331"/>
		</g>
		<g>
			
				<rect x="8.605" y="8.608" transform="matrix(0.0265 0.9996 -0.9996 0.0265 18.2724 0.7826)" fill="#FAF1DB" width="0.258" height="2.33"/>
		</g>
		<g>
			<rect x="8.076" y="9.117" fill="#FAF1DB" width="2.334" height="0.261"/>
		</g>
		<g>
			
				<rect x="8.603" y="8.609" transform="matrix(0.9994 0.0339 -0.0339 0.9994 0.3017 -0.3261)" fill="#FAF1DB" width="2.334" height="0.26"/>
		</g>
		<g>
			
				<rect x="9.148" y="8.118" transform="matrix(0.9977 0.0678 -0.0678 0.9977 0.5829 -0.6803)" fill="#FAF1DB" width="2.333" height="0.259"/>
		</g>
		<g>
			
				<rect x="9.707" y="7.645" transform="matrix(0.9948 0.1014 -0.1014 0.9948 0.8441 -1.0622)" fill="#FAF1DB" width="2.331" height="0.259"/>
		</g>
		<g>
			
				<rect x="10.282" y="7.19" transform="matrix(0.991 0.134 -0.134 0.991 1.0844 -1.4683)" fill="#FAF1DB" width="2.332" height="0.26"/>
		</g>
		<g>
			
				<rect x="10.874" y="6.757" transform="matrix(0.9857 0.1683 -0.1683 0.9857 1.3305 -1.9278)" fill="#FAF1DB" width="2.333" height="0.26"/>
		</g>
		<g>
			
				<rect x="11.48" y="6.342" transform="matrix(0.9795 0.2013 -0.2013 0.9795 1.562 -2.4138)" fill="#FAF1DB" width="2.333" height="0.26"/>
		</g>
		<g>
			
				<rect x="12.1" y="5.948" transform="matrix(0.9721 0.2347 -0.2347 0.9721 1.7966 -2.9435)" fill="#FAF1DB" width="2.335" height="0.259"/>
		</g>
		<g>
			
				<rect x="12.735" y="5.575" transform="matrix(0.9635 0.2676 -0.2676 0.9635 2.0333 -3.5117)" fill="#FAF1DB" width="2.332" height="0.259"/>
		</g>
		<g>
			
				<rect x="13.384" y="5.224" transform="matrix(0.9536 0.3011 -0.3011 0.9536 2.2871 -4.1327)" fill="#FAF1DB" width="2.332" height="0.257"/>
		</g>
		<g>
			
				<rect x="14.047" y="4.893" transform="matrix(0.9428 0.3333 -0.3333 0.9428 2.5434 -4.7827)" fill="#FAF1DB" width="2.333" height="0.259"/>
		</g>
		<g>
			
				<rect x="14.721" y="4.584" transform="matrix(0.9308 0.3655 -0.3655 0.9308 2.8225 -5.481)" fill="#FAF1DB" width="2.332" height="0.259"/>
		</g>
		<g>
			
				<rect x="15.407" y="4.299" transform="matrix(0.9175 0.3977 -0.3977 0.9175 3.1278 -6.2254)" fill="#FAF1DB" width="2.333" height="0.26"/>
		</g>
		<g>
			
				<rect x="16.106" y="4.038" transform="matrix(0.903 0.4297 -0.4297 0.903 3.4667 -7.0175)" fill="#FAF1DB" width="2.332" height="0.258"/>
		</g>
		<g>
			
				<rect x="16.815" y="3.798" transform="matrix(0.8879 0.4601 -0.4601 0.8879 3.8232 -7.8322)" fill="#FAF1DB" width="2.333" height="0.26"/>
		</g>
		<g>
			
				<rect x="17.536" y="3.586" transform="matrix(0.871 0.4912 -0.4912 0.871 4.2366 -8.7075)" fill="#FAF1DB" width="2.332" height="0.258"/>
		</g>
		<g>
			
				<rect x="18.267" y="3.395" transform="matrix(0.853 0.522 -0.522 0.853 4.6975 -9.6253)" fill="#FAF1DB" width="2.331" height="0.259"/>
		</g>
		<g>
			
				<rect x="19.006" y="3.231" transform="matrix(0.8344 0.5512 -0.5512 0.8344 5.1944 -10.5632)" fill="#FAF1DB" width="2.335" height="0.261"/>
		</g>
		<g>
			
				<rect x="19.756" y="3.092" transform="matrix(0.8141 0.5807 -0.5807 0.8141 5.7594 -11.55)" fill="#FAF1DB" width="2.332" height="0.26"/>
		</g>
		<g>
			
				<rect x="20.514" y="2.98" transform="matrix(0.7925 0.6099 -0.6099 0.7925 6.395 -12.577)" fill="#FAF1DB" width="2.331" height="0.258"/>
		</g>
		<g>
			
				<rect x="21.281" y="2.894" transform="matrix(0.7701 0.6379 -0.6379 0.7701 7.0884 -13.6239)" fill="#FAF1DB" width="2.333" height="0.259"/>
		</g>
		<g>
			
				<rect x="22.056" y="2.834" transform="matrix(0.7469 0.6649 -0.6649 0.7469 7.8471 -14.69)" fill="#FAF1DB" width="2.332" height="0.259"/>
		</g>
		<g>
			
				<rect x="22.838" y="2.803" transform="matrix(0.7226 0.6912 -0.6912 0.7226 8.6852 -15.7792)" fill="#FAF1DB" width="2.333" height="0.258"/>
		</g>
		<g>
			
				<rect x="23.626" y="2.802" transform="matrix(0.6974 0.7167 -0.7167 0.6974 9.6013 -16.8814)" fill="#FAF1DB" width="2.331" height="0.256"/>
		</g>
		<g>
			
				<rect x="24.409" y="2.823" transform="matrix(0.6715 0.741 -0.741 0.6715 10.5897 -17.9814)" fill="#FAF1DB" width="2.331" height="0.259"/>
		</g>
		<g>
			
				<rect x="25.185" y="2.875" transform="matrix(0.6452 0.7641 -0.7641 0.6452 11.6465 -19.0673)" fill="#FAF1DB" width="2.333" height="0.26"/>
		</g>
		<g>
			
				<rect x="25.952" y="2.954" transform="matrix(0.617 0.787 -0.787 0.617 12.813 -20.1597)" fill="#FAF1DB" width="2.333" height="0.26"/>
		</g>
		<g>
			
				<rect x="26.712" y="3.061" transform="matrix(0.5889 0.8082 -0.8082 0.5889 14.0392 -21.2202)" fill="#FAF1DB" width="2.333" height="0.259"/>
		</g>
		<g>
			<polygon fill="#FAF1DB" points="29.173,4.36 27.871,2.428 28.083,2.281 29.391,4.215 			"/>
		</g>
		<g>
			
				<rect x="28.205" y="3.349" transform="matrix(0.5301 0.8479 -0.8479 0.5301 16.7511 -23.2698)" fill="#FAF1DB" width="2.332" height="0.26"/>
		</g>
		<g>
			
				<rect x="28.937" y="3.532" transform="matrix(0.5 0.866 -0.866 0.5 18.2222 -24.239)" fill="#FAF1DB" width="2.332" height="0.259"/>
		</g>
		<g>
			
				<rect x="29.66" y="3.739" transform="matrix(0.4695 0.8829 -0.8829 0.4695 19.7701 -25.165)" fill="#FAF1DB" width="2.334" height="0.262"/>
		</g>
		<g>
			
				<rect x="30.37" y="3.972" transform="matrix(0.438 0.899 -0.899 0.438 21.4106 -26.0464)" fill="#FAF1DB" width="2.332" height="0.258"/>
		</g>
		<g>
			
				<rect x="31.071" y="4.227" transform="matrix(0.4059 0.9139 -0.9139 0.4059 23.1345 -26.874)" fill="#FAF1DB" width="2.332" height="0.259"/>
		</g>
		<g>
			
				<rect x="31.76" y="4.506" transform="matrix(0.3736 0.9276 -0.9276 0.3736 24.9252 -27.6389)" fill="#FAF1DB" width="2.332" height="0.257"/>
		</g>
		<g>
			
				<rect x="32.437" y="4.808" transform="matrix(0.3417 0.9398 -0.9398 0.3417 26.7583 -28.3307)" fill="#FAF1DB" width="2.332" height="0.257"/>
		</g>
		<g>
			
				<rect x="33.102" y="5.129" transform="matrix(0.3103 0.9506 -0.9506 0.3103 28.6342 -28.9488)" fill="#FAF1DB" width="2.332" height="0.261"/>
		</g>
		<g>
			
				<rect x="33.754" y="5.474" transform="matrix(0.2773 0.9608 -0.9608 0.2773 30.6227 -29.4994)" fill="#FAF1DB" width="2.332" height="0.261"/>
		</g>
		<g>
			
				<rect x="34.391" y="5.843" transform="matrix(0.2433 0.9699 -0.9699 0.2433 32.6974 -29.9698)" fill="#FAF1DB" width="2.332" height="0.258"/>
		</g>
		<g>
			
				<rect x="35.014" y="6.231" transform="matrix(0.2102 0.9777 -0.9777 0.2102 34.7942 -30.3489)" fill="#FAF1DB" width="2.332" height="0.26"/>
		</g>
		<g>
			
				<rect x="35.624" y="6.639" transform="matrix(0.1778 0.9841 -0.9841 0.1778 36.9096 -30.6397)" fill="#FAF1DB" width="2.334" height="0.259"/>
		</g>
		<g>
			
				<rect x="36.219" y="7.066" transform="matrix(0.1436 0.9896 -0.9896 0.1436 39.1388 -30.8349)" fill="#FAF1DB" width="2.333" height="0.26"/>
		</g>
		<g>
			
				<rect x="36.799" y="7.514" transform="matrix(0.1106 0.9939 -0.9939 0.1106 41.362 -30.9338)" fill="#FAF1DB" width="2.331" height="0.259"/>
		</g>
		<g>
			
				<rect x="37.362" y="7.981" transform="matrix(0.0766 0.9971 -0.9971 0.0766 43.664 -30.9265)" fill="#FAF1DB" width="2.333" height="0.259"/>
		</g>
		<g>
			
				<rect x="37.91" y="8.465" transform="matrix(0.0427 0.9991 -0.9991 0.0427 45.9946 -30.8124)" fill="#FAF1DB" width="2.332" height="0.26"/>
		</g>
	</g>
	<path fill="#FAF1DB" d="M37.999,19.832c-0.213-0.212-0.851-0.852-1.487-1.488c-0.639-0.638-1.063-0.214-1.49-0.638
		c-0.426-0.427,0-1.276-1.063-2.339c-1.06-1.062-2.125-0.426-2.338-0.637c-0.213-0.213,0-0.852-0.851-1.277
		c-0.852-0.424-1.594-0.105-1.806,0.108c-0.213,0.211-0.532,0.956-0.107,1.806c0.426,0.85,1.062,0.639,1.277,0.85
		c0.142,0.145-0.097,0.665,0.048,1.312c-0.309,0.676-1.352,1.891-3.13,3.473c-0.609,0.54-1.553,1.349-2.602,2.242
		c-1.052-0.894-1.993-1.702-2.604-2.242c-1.779-1.582-2.823-2.797-3.131-3.473c0.145-0.647-0.093-1.168,0.05-1.312
		c0.212-0.211,0.851,0,1.275-0.85c0.426-0.85,0.105-1.595-0.107-1.806c-0.212-0.214-0.956-0.532-1.807-0.108
		c-0.849,0.426-0.64,1.064-0.849,1.277c-0.215,0.211-1.278-0.426-2.34,0.637s-0.637,1.912-1.062,2.339
		c-0.428,0.424-0.852,0-1.491,0.638c-0.636,0.637-1.274,1.276-1.487,1.488c-0.212,0.212,0,0.424,0.213,0.638
		c0.214,0.212,0.957,0.956,0.957,0.956s0.743,0.744,0.957,0.957c0.211,0.213,0.424,0.425,0.639,0.213
		c0.213-0.213,0.849-0.852,1.485-1.488c0.64-0.638,0.214-1.063,0.64-1.487c0.288-0.29,0.774-0.187,1.39-0.425
		c0.688,0.354,1.869,1.385,3.384,3.09c0.516,0.58,1.275,1.465,2.119,2.456c-1.762,1.491-3.489,2.94-4.24,3.595
		c-1.596,1.381-4.852,4.471-4.995,5.208c-0.107,0.531,0.211,1.063,0.741,1.595l0.009,0.009c0.533,0.53,1.062,0.849,1.595,0.743
		c0.738-0.146,3.826-3.4,5.208-4.996c0.632-0.728,2.011-2.365,3.451-4.069c1.438,1.704,2.815,3.342,3.446,4.069
		c1.382,1.596,4.473,4.85,5.209,4.996c0.531,0.105,1.063-0.213,1.596-0.743l0.008-0.009c0.532-0.531,0.851-1.063,0.745-1.595
		c-0.149-0.737-3.401-3.827-4.996-5.208c-0.755-0.654-2.479-2.104-4.243-3.595c0.844-0.991,1.604-1.876,2.12-2.456
		c1.517-1.705,2.695-2.735,3.384-3.09c0.615,0.238,1.102,0.135,1.391,0.425c0.425,0.424,0,0.85,0.638,1.487
		c0.638,0.637,1.274,1.275,1.489,1.488c0.212,0.212,0.425,0,0.637-0.213c0.211-0.213,0.957-0.957,0.957-0.957
		s0.744-0.744,0.956-0.956C37.999,20.256,38.212,20.044,37.999,19.832z"/>
</g>
</svg>
