<?xml version="1.0" encoding="utf-8"?>
<!-- Generator: Adobe Illustrator 15.0.0, SVG Export Plug-In  -->
<!DOCTYPE svg PUBLIC "-//W3C//DTD SVG 1.1//EN" "http://www.w3.org/Graphics/SVG/1.1/DTD/svg11.dtd" [
	<!ENTITY ns_flows "http://ns.adobe.com/Flows/1.0/">
]>
<svg version="1.1"
	 xmlns="http://www.w3.org/2000/svg" xmlns:xlink="http://www.w3.org/1999/xlink" xmlns:a="http://ns.adobe.com/AdobeSVGViewerExtensions/3.0/"
	 x="0px" y="0px" width="74px" height="68px" viewBox="-0.897 -4 74 68"
	 overflow="visible" enable-background="new -0.897 -4 74 68" xml:space="preserve">
<defs>
</defs>
<path fill="#9CB097" d="M71.974,17.437c-0.566-0.562-2.256-2.257-3.938-3.938c-1.693-1.688-2.816-0.567-3.947-1.688
	c-1.127-1.131,0-3.38-2.816-6.192c-2.801-2.815-5.625-1.126-6.186-1.685c-0.566-0.566,0-2.254-2.254-3.38
	c-2.256-1.125-4.217-0.279-4.779,0.285c-0.566,0.559-1.41,2.528-0.287,4.779c1.129,2.251,2.811,1.692,3.383,2.251
	c0.375,0.378-0.256,1.758,0.127,3.473c-0.816,1.789-3.578,5.005-8.285,9.189c-1.609,1.433-4.107,3.573-6.887,5.936
	c-2.783-2.362-5.273-4.503-6.891-5.936c-4.707-4.185-7.473-7.4-8.289-9.189c0.383-1.715-0.244-3.095,0.135-3.473
	c0.559-0.559,2.25,0,3.377-2.251c1.125-2.251,0.275-4.221-0.285-4.779c-0.564-0.564-2.533-1.41-4.785-0.285
	c-2.246,1.126-1.693,2.813-2.246,3.38c-0.57,0.559-3.383-1.131-6.197,1.685c-2.807,2.812-1.686,5.062-2.807,6.192
	c-1.131,1.12-2.254,0-3.945,1.688c-1.688,1.682-3.375,3.377-3.939,3.938c-0.559,0.559,0,1.125,0.564,1.69
	c0.566,0.558,2.531,2.527,2.531,2.527s1.971,1.973,2.535,2.536c0.559,0.563,1.123,1.125,1.689,0.563
	c0.564-0.563,2.248-2.254,3.93-3.94c1.697-1.687,0.57-2.818,1.697-3.938c0.766-0.768,2.051-0.49,3.678-1.123
	c1.822,0.938,4.947,3.663,8.957,8.177c1.365,1.538,3.377,3.882,5.607,6.505c-4.66,3.948-9.234,7.779-11.221,9.515
	C15.976,43.604,7.356,51.781,6.978,53.735c-0.285,1.406,0.557,2.815,1.961,4.221l0.023,0.023c1.412,1.402,2.809,2.246,4.221,1.967
	c1.957-0.388,10.131-9,13.789-13.224c1.672-1.928,5.32-6.262,9.133-10.776c3.805,4.515,7.453,8.849,9.123,10.776
	c3.658,4.224,11.84,12.836,13.789,13.224c1.406,0.279,2.814-0.564,4.225-1.967l0.021-0.023c1.408-1.405,2.25-2.814,1.969-4.221
	c-0.393-1.954-9.002-10.131-13.225-13.787c-1.996-1.735-6.559-5.566-11.23-9.515c2.238-2.623,4.25-4.967,5.611-6.505
	c4.016-4.514,7.135-7.239,8.957-8.177c1.633,0.633,2.92,0.355,3.682,1.123c1.127,1.12,0,2.252,1.688,3.938
	c1.689,1.687,3.375,3.377,3.941,3.94c0.564,0.562,1.125,0,1.688-0.563c0.564-0.563,2.533-2.536,2.533-2.536s1.973-1.97,2.531-2.527
	C71.974,18.562,72.532,17.995,71.974,17.437z"/>
</svg>
